<svg id="Layer_1" data-name="Layer 1" xmlns="http://www.w3.org/2000/svg" viewBox="0 0 33.68 38.56"><defs><style>.cls-1{fill:#ffa000;}</style></defs><title>footer</title><path class="cls-1" d="M41.41,15l-3.35-1.93L32.57,9.9a1.09,1.09,0,0,0-1.08,0L26,13.07,22.66,15l-6.93,4a1.1,1.1,0,0,0-.54.94v18.2a1.08,1.08,0,0,0,.54.93l6.93,4L26,45l5.48,3.16a1,1,0,0,0,1.08,0L38.06,45l3.35-1.94,6.93-4a1.08,1.08,0,0,0,.54-.93V19.94a1.1,1.1,0,0,0-.54-.94Zm-8.84-1.23,5,2.86a1.06,1.06,0,0,1,.54.93v8.72A1.08,1.08,0,0,1,37,27.36H27.09A1.08,1.08,0,0,1,26,26.28V17.56a1.06,1.06,0,0,1,.54-.93l4.94-2.86A1.09,1.09,0,0,1,32.57,13.77ZM19.08,37.14a1.08,1.08,0,0,1-.54-.93V21.87a1.08,1.08,0,0,1,.54-.93l2-1.13a1.08,1.08,0,0,1,1.62.93V37.33a1.08,1.08,0,0,1-1.62.94Zm12.41,7.17-4.94-2.86a1.06,1.06,0,0,1-.54-.93V31.79a1.08,1.08,0,0,1,1.08-1.08H37a1.08,1.08,0,0,1,1.08,1.08v8.73a1.06,1.06,0,0,1-.54.93l-5,2.86A1.09,1.09,0,0,1,31.49,44.31Zm14-13.6v5.5a1.08,1.08,0,0,1-.54.93l-2,1.13a1.08,1.08,0,0,1-1.62-.94V20.74A1.08,1.08,0,0,1,43,19.81l2,1.13a1.08,1.08,0,0,1,.54.93v8.84Z" transform="translate(-15.19 -9.76)"/></svg>