<?xml version="1.0" encoding="utf-8"?>
<!-- Generator: Adobe Illustrator 22.0.1, SVG Export Plug-In . SVG Version: 6.00 Build 0)  -->
<svg version="1.1" id="Layer_1" xmlns="http://www.w3.org/2000/svg" xmlns:xlink="http://www.w3.org/1999/xlink" x="0px" y="0px"
	 viewBox="0 0 492 492" style="enable-background:new 0 0 492 492;" xml:space="preserve">
<style type="text/css">
	.st0{fill:#FFFFFF;}
</style>
<g>
	<g>
		<path class="st0" d="M125,7.9L108.8,24c-5.1,5.1-7.9,11.8-7.9,19c0,7.2,2.8,14,7.9,19l183.8,183.8L108.6,429.9
			c-5.1,5.1-7.9,11.8-7.9,19s2.8,14,7.9,19l16.1,16.1c10.5,10.5,27.6,10.5,38.1,0L382.7,265c5.1-5.1,8.6-11.8,8.6-19.1v-0.1
			c0-7.2-3.6-14-8.6-19L163.3,7.9c-5.1-5.1-12-7.9-19.2-7.9C136.9,0,130,2.8,125,7.9z"/>
	</g>
</g>
</svg>
