<?xml version="1.0" encoding="utf-8"?>
<!-- Generator: Adobe Illustrator 22.0.1, SVG Export Plug-In . SVG Version: 6.00 Build 0)  -->
<svg version="1.1" id="Layer_1" xmlns="http://www.w3.org/2000/svg" xmlns:xlink="http://www.w3.org/1999/xlink" x="0px" y="0px"
	 viewBox="0 0 492 492" style="enable-background:new 0 0 492 492;" xml:space="preserve">
<style type="text/css">
	.st0{fill:#FFA000;}
</style>
<g>
	<g>
		<path class="st0" d="M367,484.1l16.2-16.1c5.1-5.1,7.9-11.8,7.9-19c0-7.2-2.8-14-7.9-19L199.4,246.1L383.4,62.1
			c5.1-5.1,7.9-11.8,7.9-19s-2.8-14-7.9-19L367.3,7.9c-10.5-10.5-27.6-10.5-38.1,0L109.3,227c-5.1,5.1-8.6,11.8-8.6,19.1v0.1
			c0,7.2,3.6,14,8.6,19l219.3,218.9c5.1,5.1,12,7.9,19.2,7.9C355.1,492,362,489.2,367,484.1z"/>
	</g>
</g>
</svg>
